<svg xmlns="http://www.w3.org/2000/svg" id="Layer_1" viewBox="0 0 1774.9 277.9"><path d="M0,277.9V.5C1.8,.4,3.5,.2,5.2,.2c68.7,0,137.3,0,206,0,31.5,0,54.8,23.5,54.8,55.1,0,17.5,.2,35-.1,52.5-.1,5.7-1.8,11.4-2.4,17.2-.2,1.7,0,4,1,5.2,9.3,11,13.1,23.6,12.8,37.9-.3,18.7,0,37.3,0,56,0,30.3-23.6,53.8-54,53.8-72.5,0-145,0-217.5,0-1.8,0-3.6,0-5.7,0Zm138.1-51c27.3,0,54.6,0,81.9,0,4.4,0,5.8-1.4,5.7-5.8-.2-17.8-.2-35.6,0-53.4,0-4.5-1.6-5.6-5.8-5.6-54.6,.1-109.2,.1-163.9,0-4.2,0-5.5,1.4-5.5,5.5,.2,17.8,.2,35.6,0,53.4,0,4.6,1.5,5.9,6.1,5.9,27.1-.2,54.3,0,81.4,0Zm-6-116c25.6,0,51.3,0,76.9,0,4.2,0,5.4-1.3,5.3-5.4-.2-16.3-.2-32.6,0-48.9,0-4.2-1.4-5.4-5.4-5.4-50.9,0-101.9,0-152.8,0-4,0-5.6,1.2-5.5,5.5,.2,16,.3,32,0,47.9-.1,5.2,1.8,6.4,6.7,6.4,25-.2,49.9,0,74.9-.1Z" style="fill:#fff"/><path d="M927.3,277.6h-51V.2h27.7c6.5,0,13,.5,19.5-.1,6-.6,9.6,1.9,13.4,6.4,54.3,64.9,108.7,129.7,163.1,194.6,.3,.4,.7,.7,1.8,1.6V.6h51.2V277.5c-1.2,.1-2.5,.3-3.7,.3-15.8,0-31.7,.1-47.5-.1-2.2,0-5.1-1.4-6.6-3.1-54.6-64.7-109-129.5-163.5-194.2-1.2-1.4-2.4-2.7-4.3-4.9v202.1Z" style="fill:#fff"/><path d="M370.7,191.5c0,11.4,0,21.7,0,32,0,2.8,1.4,3.9,4.1,3.7,1.3,0,2.7,0,4,0,54,0,108,0,161.9,0h6.2v50.7h-5.6c-56.1,0-112.3,0-168.4,0-28.5,0-52.2-22.7-52.6-51.3-.4-41-.4-82,0-122.9,.3-26.1,24.6-49.2,51.4-49.4,41.3-.2,82.6-.2,124,0,26.2,.1,50,21.7,51.1,48.1,1.2,29.4,.3,58.9,.3,89.1h-176.3Zm125.6-51.2c0-10.2-.2-20,0-29.7,.1-4.5-1.4-5.6-5.7-5.6-37,.2-73.9,0-110.9,0-1.8,0-3.8-.4-5.5,.1-1.4,.4-3.5,1.9-3.5,3-.3,10.6-.2,21.2-.2,32.1h125.6Z" style="fill:#fff"/><path d="M1421.9,164.6h-163.7v113h-51.1V.4h254.5V51.2h-203.1v62.3h163.4v51.1Z" style="fill:#fff"/><path d="M824.3,277.6h-50.7c0-2.1,0-4.2,0-6.3,0-53.2,0-106.3,0-159.5q0-6.8-6.9-6.8c-37.5,0-75,.1-112.5-.1-5.2,0-6.3,1.6-6.3,6.5,.2,53.3,.1,106.6,.1,160v6.2h-50.5V54.2c2,0,3.8,0,5.5,0,56,0,112,0,168,0,29.5,0,53.1,23.4,53.2,52.8,0,55,0,110,0,165,0,1.8,0,3.6,0,5.6Z" style="fill:#fff"/><path d="M1610.6,51.3h-112.9V.7h277.2V51.1h-112.6v226.3h-51.7V51.3Z" style="fill:#fff"/></svg>